<?xml version="1.0" encoding="UTF-8" standalone="no"?>
<!-- Created with Inkscape (http://www.inkscape.org/) -->

<svg
   xmlns:dc="http://purl.org/dc/elements/1.1/"
   xmlns:cc="http://creativecommons.org/ns#"
   xmlns:rdf="http://www.w3.org/1999/02/22-rdf-syntax-ns#"
   xmlns:svg="http://www.w3.org/2000/svg"
   xmlns="http://www.w3.org/2000/svg"
   xmlns:sodipodi="http://sodipodi.sourceforge.net/DTD/sodipodi-0.dtd"
   xmlns:inkscape="http://www.inkscape.org/namespaces/inkscape"
   width="16"
   height="16"
   id="svg2"
   version="1.1"
   inkscape:version="0.48.4 r9939"
   inkscape:export-filename="/home/vagenas/Development/WordPress/vvv/www/Randomizer/htdocs/wp-content/plugins/randomizer/templates/client-side/images/icon-24x24.png"
   inkscape:export-xdpi="143.99001"
   inkscape:export-ydpi="143.99001"
   sodipodi:docname="icon-16x16.svg">
  <defs
     id="defs4" />
  <sodipodi:namedview
     id="base"
     pagecolor="#ffffff"
     bordercolor="#666666"
     borderopacity="1.0"
     inkscape:pageopacity="0.0"
     inkscape:pageshadow="2"
     inkscape:zoom="44.8"
     inkscape:cx="6.6846743"
     inkscape:cy="8.499288"
     inkscape:document-units="px"
     inkscape:current-layer="layer1"
     showgrid="false"
     inkscape:window-width="1867"
     inkscape:window-height="1056"
     inkscape:window-x="53"
     inkscape:window-y="24"
     inkscape:window-maximized="1" />
  <metadata
     id="metadata7">
    <rdf:RDF>
      <cc:Work
         rdf:about="">
        <dc:format>image/svg+xml</dc:format>
        <dc:type
           rdf:resource="http://purl.org/dc/dcmitype/StillImage" />
        <dc:title></dc:title>
      </cc:Work>
    </rdf:RDF>
  </metadata>
  <g
     inkscape:groupmode="layer"
     id="layer2"
     inkscape:label="bkg"
     style="display:none"
     sodipodi:insensitive="true">
    <rect
       style="fill:#0f0000;fill-opacity:1;stroke:none"
       id="rect3769"
       width="16"
       height="16"
       x="0"
       y="0" />
  </g>
  <g
     inkscape:label="Layer 1"
     inkscape:groupmode="layer"
     id="layer1"
     transform="translate(0,-1036.3622)"
     style="display:inline"
     sodipodi:insensitive="true">
    <rect
       style="fill:#ffffff;fill-opacity:1;stroke:#0f0000;stroke-width:1;stroke-linecap:round;stroke-linejoin:round;stroke-miterlimit:1;stroke-opacity:1;stroke-dasharray:none"
       id="rect2987"
       width="14"
       height="14"
       x="1"
       y="1037.3622" />
    <path
       sodipodi:type="arc"
       style="fill:#000000;fill-opacity:1;stroke:none"
       id="path3757"
       sodipodi:cx="3.5197504"
       sodipodi:cy="3.7361166"
       sodipodi:rx="0.93123436"
       sodipodi:ry="0.93123436"
       d="m 4.4509847,3.7361166 a 0.93123436,0.93123436 0 1 1 -1.8624687,0 0.93123436,0.93123436 0 1 1 1.8624687,0 z"
       transform="matrix(1.5762712,0,0,1.5762712,-0.98891216,1034.3355)" />
    <path
       sodipodi:type="arc"
       style="fill:#000000;fill-opacity:1;stroke:none"
       id="path3757-6"
       sodipodi:cx="3.5197504"
       sodipodi:cy="3.7361166"
       sodipodi:rx="0.93123436"
       sodipodi:ry="0.93123436"
       d="m 4.4509847,3.7361166 a 0.93123436,0.93123436 0 1 1 -1.8624687,0 0.93123436,0.93123436 0 1 1 1.8624687,0 z"
       transform="matrix(1.5762712,0,0,1.5762712,5.8927501,1034.3355)" />
    <path
       sodipodi:type="arc"
       style="fill:#000000;fill-opacity:1;stroke:none"
       id="path3757-3"
       sodipodi:cx="3.5197504"
       sodipodi:cy="3.7361166"
       sodipodi:rx="0.93123436"
       sodipodi:ry="0.93123436"
       d="m 4.4509847,3.7361166 a 0.93123436,0.93123436 0 1 1 -1.8624687,0 0.93123436,0.93123436 0 1 1 1.8624687,0 z"
       transform="matrix(1.5762712,0,0,1.5762712,-0.98891216,1038.4731)" />
    <path
       sodipodi:type="arc"
       style="fill:#000000;fill-opacity:1;stroke:none"
       id="path3757-0"
       sodipodi:cx="3.5197504"
       sodipodi:cy="3.7361166"
       sodipodi:rx="0.93123436"
       sodipodi:ry="0.93123436"
       d="m 4.4509847,3.7361166 a 0.93123436,0.93123436 0 1 1 -1.8624687,0 0.93123436,0.93123436 0 1 1 1.8624687,0 z"
       transform="matrix(1.5762712,0,0,1.5762712,-0.98891216,1042.6534)" />
    <path
       sodipodi:type="arc"
       style="fill:#000000;fill-opacity:1;stroke:none"
       id="path3757-38"
       sodipodi:cx="3.5197504"
       sodipodi:cy="3.7361166"
       sodipodi:rx="0.93123436"
       sodipodi:ry="0.93123436"
       d="m 4.4509847,3.7361166 a 0.93123436,0.93123436 0 1 1 -1.8624687,0 0.93123436,0.93123436 0 1 1 1.8624687,0 z"
       transform="matrix(1.5762712,0,0,1.5762712,5.8927501,1042.6534)" />
    <path
       sodipodi:type="arc"
       style="fill:#000000;fill-opacity:1;stroke:none"
       id="path3757-9"
       sodipodi:cx="3.5197504"
       sodipodi:cy="3.7361166"
       sodipodi:rx="0.93123436"
       sodipodi:ry="0.93123436"
       d="m 4.4509847,3.7361166 a 0.93123436,0.93123436 0 1 1 -1.8624687,0 0.93123436,0.93123436 0 1 1 1.8624687,0 z"
       transform="matrix(1.5762712,0,0,1.5762712,5.8927501,1038.4731)" />
  </g>
</svg>
